<!DOCTYPE svg PUBLIC "-//W3C//DTD SVG 1.1//EN" "http://www.w3.org/Graphics/SVG/1.1/DTD/svg11.dtd">
<!-- Uploaded to: SVG Repo, www.svgrepo.com, Transformed by: SVG Repo Mixer Tools -->
<svg width="107px" height="107px" viewBox="0 0 320 320" fill="none" xmlns="http://www.w3.org/2000/svg">
<g id="SVGRepo_bgCarrier" stroke-width="0"/>
<g id="SVGRepo_tracerCarrier" stroke-linecap="round" stroke-linejoin="round"/>
<g id="SVGRepo_iconCarrier"> <path fill-rule="evenodd" clip-rule="evenodd" d="M182.65 262.921C186.649 262.807 190.458 262.292 194.246 261.454C193.915 237.4 195.962 200.817 196.562 198.398C198.777 189.481 210.002 179.009 211.009 179.89C221.078 188.703 247.344 189.585 264.418 179.009C266.301 177.842 275.429 185.956 280.631 194.338C293.516 170.104 299.552 142.144 295.991 127.008C292.12 110.558 285.217 98.4266 269.286 93.076C266.071 91.996 263.029 91.3758 260.103 91.1541C258.04 96.7878 252.342 100.51 245.949 100.568C242.428 100.599 239.092 99.5018 236.444 97.575C234.581 98.6239 232.694 99.7746 230.762 101.008C223.435 105.687 220.634 112.304 217.762 119.085C215.143 125.269 212.467 131.59 206.247 136.703C197.746 143.69 190.85 146.596 182.664 148.716C184.167 181.582 183.308 234.124 182.65 262.921ZM257.413 160.5V173.28C246.907 179.89 228.958 180.331 217.138 173.28V161.381C225.456 155.212 249.533 153.449 257.413 160.5Z" fill="#e96336"/> <path fill-rule="evenodd" clip-rule="evenodd" d="M111.659 64.6314C106.523 65.4367 102.034 66.8679 99.3764 68.8389V85.5847C102.386 87.4288 106.535 88.7212 111.129 89.4859C110.767 91.085 110.366 92.7211 109.936 94.398C109.793 94.9527 109.641 95.5049 109.478 96.0543C102.633 94.6447 96.7809 92.203 93.2475 89.1101C74.627 96.7187 54.3023 113.788 52.5343 120.398C51.6588 123.671 50.8552 127.265 50.1215 131.138C33.6523 127.489 25.5162 116.93 23.2555 97.9233C20.2551 72.6962 44.4461 51.8319 55.6504 46.3639C70.0979 39.3131 89.4069 37.0904 102.931 50.7708C107.411 55.302 110.166 59.8603 111.659 64.6314Z" fill="#e96336"/> <path d="M99.3763 68.8389C107.694 62.6694 133.961 61.7881 141.841 68.8389M99.3763 68.8389V85.5847C109.445 91.7542 132.267 91.7492 141.841 86.4661V68.8389M99.3763 68.8389C111.196 74.5678 132.391 75.2584 141.841 68.8389M47.4328 149.042C48.7353 138.018 50.4264 128.279 52.5342 120.398C54.3023 113.788 74.627 96.7188 93.2475 89.1102C103.316 97.9237 132.21 101.449 149.283 90.8729C165.08 100.869 171.355 107.424 179.052 120.398C186.748 133.373 182.116 283.449 182.116 283.449C157.6 301.076 74.4227 302.398 46.4054 282.127C45.4335 269.189 44.7435 255.644 44.3618 242.026M47.4328 149.042C63.8376 155.049 81.7063 156.294 123.454 156.093V249.958C116.585 253.258 106.377 254.596 95.436 254.453C92.0564 254.409 88.6069 254.224 85.1643 253.911M47.4328 149.042C44.4121 174.612 43.482 207.102 44.2916 239.381M44.3618 242.026C44.3371 241.144 44.3137 240.263 44.2916 239.381M44.3618 242.026C51.9883 247.901 68.4956 252.397 85.1643 253.911M149.283 108.941C152.43 110.48 153.818 112.14 156.287 115.11M149.283 120.398C151.728 123.91 153.323 125.028 156.287 126.568M168.982 255.687C169.72 257.82 169.864 259.368 168.982 263.619M158.914 275.517C162.242 275.804 163.836 274.721 166.794 273.314M56.0361 265.822C55.5344 267.973 55.5719 269.535 56.0361 273.314M217.138 161.381C225.456 155.212 249.533 153.449 257.413 160.5M217.138 161.381V173.28C228.958 180.331 246.907 179.89 257.413 173.28V160.5M217.138 161.381C228.958 167.11 247.964 166.92 257.413 160.5M211.009 191.788C209.374 193.527 208.542 194.55 207.507 196.636M213.636 202.365L211.009 205.009M272.735 267.585C273.937 271.538 274.208 273.091 274.487 275.517M260.478 278.161C263.337 278.61 264.721 278.784 267.044 279.042M206.631 56.9404C209.035 60.5545 209.143 62.5805 206.631 66.1946M44.2916 239.381C44.2916 239.381 55.8332 221.313 55.8332 218.669C55.8332 213.265 54.4782 211.119 55.8332 205.89C58.4599 195.754 65.9021 197.958 66.7777 193.11C67.6443 188.312 72.2665 183.614 74.6086 181.497C75.1903 180.972 76.0928 181.334 76.2046 182.11C76.5924 184.802 77.4841 190.06 79.0354 194.432C80.1983 197.71 83.8229 195.52 86.9154 197.076C89.542 198.398 89.9798 207.652 92.1687 208.093C96.0542 208.875 101.716 208.488 104.326 208.243C105.015 208.178 105.572 208.798 105.391 209.466C104.494 212.766 101.864 221.141 97.422 224.839C93.8591 227.806 87.1103 229.445 84.7183 229.954C84.2239 230.059 83.8719 230.506 83.8997 231.011L85.1643 253.911M79.0354 206.771V209.415M68.091 213.381C69.3087 214.592 69.9344 215.373 70.6987 215.884C71.2831 216.275 71.6015 217.095 71.1207 217.608C70.245 218.542 69.2596 219.013 67.2154 219.11M211.009 179.89C221.078 188.703 247.344 189.585 264.418 179.009C266.607 177.653 278.581 188.832 282.804 198.398C284.555 202.365 287.811 280.364 284.555 283.449C277.113 290.5 216.262 298.873 196.562 282.127C191.738 278.027 195.687 201.924 196.562 198.398C198.777 189.481 210.002 179.009 211.009 179.89ZM200.065 40.6355C188.699 40.5152 179.052 49.4654 179.052 60.9067C179.052 72.3481 188.699 81.2982 200.065 81.178C211.307 81.059 220.64 72.2246 220.64 60.9067C220.64 49.5889 211.307 40.7545 200.065 40.6355ZM242.967 23.0081C236.321 22.7602 230.709 28.2124 230.709 34.9064C230.709 41.3572 235.687 46.5658 242.091 46.8048C248.736 47.0527 254.349 41.6005 254.349 34.9064C254.349 28.4557 249.37 23.247 242.967 23.0081ZM245.949 72.3641C237.749 72.2895 230.454 78.6555 230.709 86.9065C230.957 94.9247 237.98 100.64 245.949 100.568C253.838 100.496 260.669 94.8448 260.915 86.9065C261.169 78.7331 254.072 72.438 245.949 72.3641ZM267.92 218.561V250.432C267.92 250.921 267.559 251.34 267.076 251.419C245.407 254.955 233.008 254.773 211.799 250.132C211.341 250.032 211.009 249.624 211.009 249.155V219.822C211.009 219.213 211.555 218.747 212.157 218.831C233.498 221.795 245.863 221.563 266.721 217.579C267.339 217.461 267.92 217.932 267.92 218.561Z" stroke="#e96336" stroke-width="5" stroke-linecap="round"/> </g>
</svg>