<!DOCTYPE svg PUBLIC "-//W3C//DTD SVG 1.1//EN" "http://www.w3.org/Graphics/SVG/1.1/DTD/svg11.dtd">
<!-- Uploaded to: SVG Repo, www.svgrepo.com, Transformed by: SVG Repo Mixer Tools -->
<svg height="108px" width="108px" version="1.1" id="_x32_" xmlns="http://www.w3.org/2000/svg" xmlns:xlink="http://www.w3.org/1999/xlink" viewBox="0 0 512 512" xml:space="preserve" fill="#000000">
<g id="SVGRepo_bgCarrier" stroke-width="0"/>
<g id="SVGRepo_tracerCarrier" stroke-linecap="round" stroke-linejoin="round"/>
<g id="SVGRepo_iconCarrier"> <style type="text/css"> .st0{fill:#e96336;} </style> <g> <path class="st0" d="M510.486,354.916l-37.841-131.714c-3.725-12.968-11.148-24.112-21.041-32.068 c-4.952-3.985-10.52-7.166-16.54-9.363c-6.012-2.19-12.478-3.368-19.1-3.368h-8.254c-7.02-9.28-24.78-31.894-36.312-38.922 c-14.637-8.919-63.213-6.21-78.97-16.612c-15.764-10.396-39.47-11.99-60.923-13.564c-27.24-2.01-50.898,17.451-63.328,18.865 c-12.43,1.414-36.188,10.14-47.568,27.785c-7.734,6.667-14.824,17.548-17.815,22.448h-6.75c-6.629,0-13.088,1.178-19.108,3.368 c-9.03,3.292-17.045,8.808-23.481,15.905c-6.431,7.097-11.306,15.802-14.1,25.526L1.514,354.909C0.495,358.458,0,362.082,0,365.679 c0.004,7.506,2.131,14.956,6.436,21.402v0.006c3.184,4.761,7.415,8.705,12.367,11.456c4.942,2.751,10.628,4.304,16.498,4.297 h441.398c5.87,0.006,11.556-1.546,16.498-4.297c4.952-2.752,9.184-6.695,12.368-11.456v-0.006 c4.304-6.452,6.432-13.896,6.436-21.402C512,362.082,511.504,358.464,510.486,354.916z M478.813,369.2 c-0.434,0.645-0.883,1.005-1.248,1.206c-0.368,0.201-0.616,0.249-0.866,0.249H35.3c-0.249,0-0.499-0.048-0.866-0.249 c-0.357-0.202-0.811-0.562-1.244-1.206c-0.589-0.866-1.012-2.169-1.008-3.521c0-0.638,0.094-1.282,0.267-1.885L70.29,232.086 c1.947-6.764,5.7-12.197,10.281-15.878c2.287-1.837,4.779-3.244,7.371-4.186c2.592-0.942,5.295-1.435,8.102-1.435h319.92 c2.8,0,5.503,0.492,8.098,1.435c3.885,1.414,7.551,3.867,10.635,7.27c3.081,3.403,5.558,7.721,7.014,12.794l37.84,131.708 c0.173,0.603,0.26,1.248,0.26,1.885c0.011,1.352-0.412,2.655-1.001,3.521H478.813z"/> <path class="st0" d="M359.802,270.315c0-12.807-10.385-23.189-23.193-23.189c-12.225,0-22.219,9.474-23.103,21.477 c-8.043,6.958-11.945,4.616-27.622,4.616c-16.436,0-82.695,2.897-90.055-5.274c-1.192-11.692-11.065-20.82-23.068-20.82 c-12.815,0-23.19,10.382-23.19,23.189c0,8.74,4.827,16.342,11.965,20.293c-7.138,3.957-11.965,11.553-11.965,20.286 c0,12.808,10.375,23.19,23.19,23.19c12.801,0,23.186-10.382,23.186-23.19c0-0.603-0.048-1.199-0.094-1.788 c2.786-2.869,6.369-5.454,10.236-5.454c8.694,0,79.795,0,79.795,0s8.698,0,17.392,0c3.871,0,7.45,2.585,10.236,5.454 c-0.045,0.589-0.094,1.185-0.094,1.788c0,12.808,10.382,23.19,23.19,23.19c12.808,0,23.193-10.382,23.193-23.19 c0-8.733-4.834-16.328-11.972-20.286C354.968,286.657,359.802,279.054,359.802,270.315z"/> </g> </g>
</svg>